<svg width="32" height="32" viewBox="0 0 32 32" fill="none" xmlns="http://www.w3.org/2000/svg">
  <rect width="32" height="32" rx="6" fill="#7C3AED"/>
  <path d="M16 7C16 7 13 10 13 13C13 14.6569 14.3431 16 16 16C17.6569 16 19 14.6569 19 13C19 10 16 7 16 7Z" fill="white"/>
  <path d="M10 12C10 12 7 15 7 18C7 19.6569 8.34315 21 10 21C11.6569 21 13 19.6569 13 18C13 15 10 12 10 12Z" fill="white" opacity="0.8"/>
  <path d="M22 12C22 12 19 15 19 18C19 19.6569 20.3431 21 22 21C23.6569 21 25 19.6569 25 18C25 15 22 12 22 12Z" fill="white" opacity="0.8"/>
  <path d="M16 18C16 18 13 21 13 24C13 25.6569 14.3431 27 16 27C17.6569 27 19 25.6569 19 24C19 21 16 18 16 18Z" fill="white" opacity="0.6"/>
</svg>
